<svg width="15" height="15" viewBox="0 0 15 15" fill="none" xmlns="http://www.w3.org/2000/svg">
<path d="M7.34375 4C6.73958 4 6.17708 4.15625 5.65625 4.46875C5.15625 4.76042 4.75 5.16667 4.4375 5.6875C4.14583 6.1875 4 6.73958 4 7.34375C4 7.94792 4.14583 8.51042 4.4375 9.03125C4.75 9.53125 5.15625 9.9375 5.65625 10.25C6.17708 10.5417 6.73958 10.6875 7.34375 10.6875C7.94792 10.6875 8.5 10.5417 9 10.25C9.52083 9.9375 9.92708 9.53125 10.2188 9.03125C10.5312 8.51042 10.6875 7.94792 10.6875 7.34375C10.6875 6.73958 10.5312 6.1875 10.2188 5.6875C9.92708 5.16667 9.52083 4.76042 9 4.46875C8.5 4.15625 7.94792 4 7.34375 4ZM0.6875 8H2C2.1875 8 2.34375 7.9375 2.46875 7.8125C2.61458 7.6875 2.6875 7.53125 2.6875 7.34375C2.6875 7.15625 2.61458 7 2.46875 6.875C2.34375 6.75 2.1875 6.6875 2 6.6875H0.6875C0.5 6.6875 0.333333 6.75 0.1875 6.875C0.0625 7 0 7.15625 0 7.34375C0 7.53125 0.0625 7.6875 0.1875 7.8125C0.333333 7.9375 0.5 8 0.6875 8ZM12.6875 8H14C14.1875 8 14.3438 7.9375 14.4688 7.8125C14.6146 7.6875 14.6875 7.53125 14.6875 7.34375C14.6875 7.15625 14.6146 7 14.4688 6.875C14.3438 6.75 14.1875 6.6875 14 6.6875H12.6875C12.5 6.6875 12.3333 6.75 12.1875 6.875C12.0625 7 12 7.15625 12 7.34375C12 7.53125 12.0625 7.6875 12.1875 7.8125C12.3333 7.9375 12.5 8 12.6875 8ZM6.6875 0.6875V2C6.6875 2.1875 6.75 2.35417 6.875 2.5C7 2.625 7.15625 2.6875 7.34375 2.6875C7.53125 2.6875 7.6875 2.625 7.8125 2.5C7.9375 2.35417 8 2.1875 8 2V0.6875C8 0.5 7.9375 0.34375 7.8125 0.21875C7.6875 0.0729167 7.53125 0 7.34375 0C7.15625 0 7 0.0729167 6.875 0.21875C6.75 0.34375 6.6875 0.5 6.6875 0.6875ZM6.6875 12.6875V14C6.6875 14.1875 6.75 14.3542 6.875 14.5C7 14.625 7.15625 14.6875 7.34375 14.6875C7.53125 14.6875 7.6875 14.625 7.8125 14.5C7.9375 14.3542 8 14.1875 8 14V12.6875C8 12.5 7.9375 12.3438 7.8125 12.2188C7.6875 12.0729 7.53125 12 7.34375 12C7.15625 12 7 12.0729 6.875 12.2188C6.75 12.3438 6.6875 12.5 6.6875 12.6875ZM3.34375 2.40625C3.21875 2.26042 3.0625 2.1875 2.875 2.1875C2.6875 2.1875 2.53125 2.26042 2.40625 2.40625C2.26042 2.53125 2.1875 2.6875 2.1875 2.875C2.1875 3.0625 2.26042 3.21875 2.40625 3.34375L3.09375 4.03125C3.23958 4.17708 3.39583 4.25 3.5625 4.25C3.75 4.25 3.90625 4.17708 4.03125 4.03125C4.15625 3.90625 4.21875 3.75 4.21875 3.5625C4.23958 3.375 4.17708 3.21875 4.03125 3.09375L3.34375 2.40625ZM11.5938 10.6562C11.4479 10.5104 11.2812 10.4375 11.0938 10.4375C10.9271 10.4375 10.7812 10.5104 10.6562 10.6562C10.5104 10.7812 10.4375 10.9375 10.4375 11.125C10.4375 11.3125 10.5104 11.4688 10.6562 11.5938L11.3438 12.2812C11.4688 12.4271 11.625 12.5 11.8125 12.5C12 12.5 12.1562 12.4271 12.2812 12.2812C12.4271 12.1562 12.5 12 12.5 11.8125C12.5 11.625 12.4271 11.4688 12.2812 11.3438L11.5938 10.6562ZM12.2812 3.34375C12.4271 3.21875 12.5 3.0625 12.5 2.875C12.5 2.6875 12.4271 2.53125 12.2812 2.40625C12.1562 2.26042 12 2.1875 11.8125 2.1875C11.625 2.1875 11.4688 2.26042 11.3438 2.40625L10.6562 3.09375C10.5104 3.23958 10.4375 3.40625 10.4375 3.59375C10.4375 3.76042 10.5104 3.90625 10.6562 4.03125C10.7812 4.15625 10.9375 4.22917 11.125 4.25C11.3125 4.25 11.4688 4.17708 11.5938 4.03125L12.2812 3.34375ZM4.03125 11.5938C4.17708 11.4479 4.25 11.2917 4.25 11.125C4.25 10.9375 4.17708 10.7812 4.03125 10.6562C3.90625 10.5104 3.75 10.4375 3.5625 10.4375C3.375 10.4375 3.21875 10.5104 3.09375 10.6562L2.40625 11.3438C2.26042 11.4688 2.1875 11.625 2.1875 11.8125C2.1875 12 2.26042 12.1562 2.40625 12.2812C2.53125 12.4062 2.6875 12.4792 2.875 12.5C3.0625 12.5 3.21875 12.4271 3.34375 12.2812L4.03125 11.5938Z" fill="#FBB910"/>
</svg>
