<svg width="11" height="14" viewBox="0 0 11 14" fill="none" xmlns="http://www.w3.org/2000/svg">
<path d="M5.34375 2.6875C6.82292 2.6875 8.08333 3.20833 9.125 4.25C10.1667 5.29167 10.6875 6.54167 10.6875 8C10.6875 9.47917 10.1562 10.7396 9.09375 11.7812C8.05208 12.8229 6.80208 13.3438 5.34375 13.3438C3.88542 13.3438 2.625 12.8229 1.5625 11.7812C0.520833 10.7396 0 9.47917 0 8H1.34375C1.34375 9.10417 1.72917 10.0521 2.5 10.8438C3.29167 11.6146 4.23958 12 5.34375 12C6.44792 12 7.38542 11.6146 8.15625 10.8438C8.94792 10.0521 9.34375 9.10417 9.34375 8C9.34375 6.89583 8.94792 5.95833 8.15625 5.1875C7.38542 4.39583 6.44792 4 5.34375 4V6.6875L2 3.34375L5.34375 0V2.6875Z" fill="white"/>
</svg>
