<svg width="23" height="22" viewBox="0 0 23 22" fill="none" xmlns="http://www.w3.org/2000/svg">
<path d="M5.48438 20.0156H9.51562C9.51562 20.5469 9.3125 21.0156 8.90625 21.4219C8.53125 21.7969 8.0625 21.9844 7.5 21.9844C6.9375 21.9844 6.45312 21.7969 6.04688 21.4219C5.67188 21.0156 5.48438 20.5469 5.48438 20.0156ZM3.51562 18.9844H11.4844V17.0156H3.51562V18.9844ZM15 9.51562C15 10.4531 14.8594 11.2969 14.5781 12.0469C14.2969 12.7656 13.9375 13.3906 13.5 13.9219C13.0938 14.4531 12.6719 14.8906 12.2344 15.2344C11.8281 15.5781 11.5 15.8281 11.25 15.9844H3.75C3.5 15.8281 3.15625 15.5781 2.71875 15.2344C2.3125 14.8906 1.89062 14.4531 1.45312 13.9219C1.04688 13.3906 0.703125 12.7656 0.421875 12.0469C0.140625 11.2969 0 10.4531 0 9.51562C0 8.48438 0.1875 7.51562 0.5625 6.60938C0.96875 5.70313 1.51562 4.90625 2.20312 4.21875C2.89062 3.53125 3.6875 3 4.59375 2.625C5.5 2.21875 6.46875 2.01562 7.5 2.01562C8.53125 2.01562 9.5 2.21875 10.4062 2.625C11.3125 3 12.1094 3.53125 12.7969 4.21875C13.4844 4.90625 14.0156 5.70313 14.3906 6.60938C14.7969 7.51562 15 8.48438 15 9.51562ZM19.875 7.35938L18.5156 8.01562L19.875 8.625L20.4844 9.98438L21.1406 8.625L22.5 8.01562L21.1406 7.35938L20.4844 6L19.875 7.35938ZM17.4844 6L18.4219 3.9375L20.4844 3L18.4219 2.0625L17.4844 0L16.5469 2.0625L14.4844 3L16.5469 3.9375L17.4844 6Z" fill="#FBB910"/>
</svg>
